# xmcd CD database file
#
# Track frame offsets:
#	150
#	16342
#	31262
#	49215
#	59780
#	78880
#	97192
#	119492
#	136585
#	151920
#	170937
#	186580
#	200662
#	217475
#	232980
#	250012
#	265440
#	278007
#
# Disc length: 3949 seconds
#
# Revision: 0
# Processed by: cddbd v1.5PL3 Copyright (c) Steve Scherf et al.
# Submitted via: CDex 1.51
#
DISCID=120f6b12
DTITLE=Alice - アリス
DYEAR=1900
DGENRE=JPop
TTITLE0=走っておいで恋人よ
TTITLE1=愛の光
TTITLE2=今はもう誰も
TTITLE3=黒い瞳の少女
TTITLE4=秋止符
TTITLE5=明日への讃歌
TTITLE6=さらば青春の時
TTITLE7=夢去りし街角
TTITLE8=ジョニーの子守唄
TTITLE9=チャンピオン
TTITLE10=涙の誓い
TTITLE11=冬の稲妻
TTITLE12=未青年
TTITLE13=Wild Wind -野生の疾風-
TTITLE14=つむじ風
TTITLE15=君のひとみは10000ボルト
TTITLE16=青春時代
TTITLE17=帰らざる日々
EXTD=
EXTT0=
EXTT1=
EXTT2=
EXTT3=
EXTT4=
EXTT5=
EXTT6=
EXTT7=
EXTT8=
EXTT9=
EXTT10=
EXTT11=
EXTT12=
EXTT13=
EXTT14=
EXTT15=
EXTT16=
EXTT17=
PLAYORDER=
